<svg width="21" height="20" viewBox="0 0 21 20" fill="none" xmlns="http://www.w3.org/2000/svg">
<g clip-path="url(#clip0_238_17678)">
<path d="M10.249 1.8023C12.9207 1.8023 13.2343 1.81421 14.2903 1.86185C15.2669 1.90552 15.7949 2.06828 16.1482 2.20722C16.6166 2.38984 16.9501 2.60421 17.2995 2.95355C17.6488 3.3029 17.8671 3.63636 18.0458 4.1048C18.1808 4.45812 18.3475 4.98611 18.3912 5.96268C18.4388 7.01866 18.4507 7.33227 18.4507 10.004C18.4507 12.6757 18.4388 12.9893 18.3912 14.0453C18.3475 15.0218 18.1847 15.5498 18.0458 15.9031C17.8632 16.3716 17.6488 16.705 17.2995 17.0544C16.9501 17.4037 16.6166 17.6221 16.1482 17.8007C15.7949 17.9357 15.2669 18.1024 14.2903 18.1461C13.2343 18.1937 12.9207 18.2056 10.249 18.2056C7.57733 18.2056 7.26372 18.1937 6.20774 18.1461C5.23116 18.1024 4.70318 17.9397 4.34986 17.8007C3.88142 17.6181 3.54795 17.4037 3.19861 17.0544C2.84926 16.705 2.63092 16.3716 2.45228 15.9031C2.31731 15.5498 2.15057 15.0218 2.1069 14.0453C2.05927 12.9893 2.04736 12.6757 2.04736 10.004C2.04736 7.33227 2.05927 7.01866 2.1069 5.96268C2.15057 4.98611 2.31334 4.45812 2.45228 4.1048C2.63489 3.63636 2.84926 3.3029 3.19861 2.95355C3.54795 2.60421 3.88142 2.38587 4.34986 2.20722C4.70318 2.07225 5.23116 1.90552 6.20774 1.86185C7.26372 1.81024 7.5813 1.8023 10.249 1.8023ZM10.249 0C7.53367 0 7.19226 0.0119095 6.12437 0.0595474C5.06046 0.107185 4.33398 0.277888 3.69881 0.524017C3.03982 0.778086 2.48404 1.12346 1.92826 1.67924C1.37249 2.23501 1.03108 2.79476 0.773041 3.44978C0.526912 4.08495 0.356209 4.81143 0.308571 5.87932C0.260933 6.94323 0.249023 7.28464 0.249023 10C0.249023 12.7154 0.260933 13.0568 0.308571 14.1247C0.356209 15.1886 0.526912 15.915 0.773041 16.5542C1.02711 17.2132 1.37249 17.769 1.92826 18.3247C2.48404 18.8805 3.04379 19.2219 3.69881 19.48C4.33398 19.7261 5.06046 19.8968 6.12835 19.9444C7.19623 19.9921 7.53367 20.004 10.253 20.004C12.9723 20.004 13.3098 19.9921 14.3777 19.9444C15.4416 19.8968 16.1681 19.7261 16.8072 19.48C17.4662 19.2259 18.022 18.8805 18.5777 18.3247C19.1335 17.769 19.4749 17.2092 19.733 16.5542C19.9791 15.919 20.1498 15.1925 20.1974 14.1247C20.2451 13.0568 20.257 12.7193 20.257 10C20.257 7.28067 20.2451 6.94323 20.1974 5.87535C20.1498 4.81143 19.9791 4.08495 19.733 3.44581C19.4789 2.78682 19.1335 2.23104 18.5777 1.67527C18.022 1.11949 17.4622 0.778087 16.8072 0.520048C16.172 0.273918 15.4455 0.103216 14.3777 0.0555776C13.3058 0.0119095 12.9644 0 10.249 0Z" fill="#FCE3D2"/>
<path d="M10.2493 4.86719C7.41481 4.86719 5.1123 7.16572 5.1123 10.0041C5.1123 12.8426 7.41084 15.1411 10.2493 15.1411C13.0877 15.1411 15.3862 12.8426 15.3862 10.0041C15.3862 7.16572 13.0877 4.86719 10.2493 4.86719ZM10.2493 13.3348C8.40726 13.3348 6.91461 11.8422 6.91461 10.0002C6.91461 8.15817 8.40726 6.66552 10.2493 6.66552C12.0913 6.66552 13.5839 8.15817 13.5839 10.0002C13.5839 11.8422 12.0913 13.3348 10.2493 13.3348Z" fill="#FCE3D2"/>
<path d="M15.5885 5.85969C16.2507 5.85969 16.7874 5.32293 16.7874 4.6608C16.7874 3.99867 16.2507 3.46191 15.5885 3.46191C14.9264 3.46191 14.3896 3.99867 14.3896 4.6608C14.3896 5.32293 14.9264 5.85969 15.5885 5.85969Z" fill="#FCE3D2"/>
</g>
<defs>
<clipPath id="clip0_238_17678">
<rect width="20" height="20" fill="white" transform="translate(0.249023)"/>
</clipPath>
</defs>
</svg>
