<svg width="21" height="20" viewBox="0 0 21 20" fill="none" xmlns="http://www.w3.org/2000/svg">
<g clip-path="url(#clip0_238_17676)">
<path d="M18.7726 0H1.72541C1.33385 0 0.958325 0.155548 0.681448 0.432425C0.404571 0.709301 0.249023 1.08483 0.249023 1.47639V18.5236C0.249023 18.9152 0.404571 19.2907 0.681448 19.5676C0.958325 19.8445 1.33385 20 1.72541 20H18.7726C19.1642 20 19.5397 19.8445 19.8166 19.5676C20.0935 19.2907 20.249 18.9152 20.249 18.5236V1.47639C20.249 1.08483 20.0935 0.709301 19.8166 0.432425C19.5397 0.155548 19.1642 0 18.7726 0ZM6.21013 17.0375H3.20319V7.48611H6.21013V17.0375ZM4.70458 6.1625C4.36349 6.16058 4.03062 6.05766 3.74797 5.86674C3.46532 5.67582 3.24556 5.40544 3.11642 5.08974C2.98729 4.77404 2.95456 4.42716 3.02238 4.09288C3.0902 3.7586 3.25552 3.4519 3.49749 3.21148C3.73945 2.97107 4.0472 2.80772 4.38191 2.74205C4.71662 2.67638 5.06328 2.71133 5.37815 2.84249C5.69302 2.97365 5.96197 3.19514 6.15108 3.47901C6.34018 3.76288 6.44096 4.09641 6.44069 4.4375C6.44391 4.66586 6.40112 4.89253 6.31487 5.104C6.22862 5.31547 6.10067 5.50742 5.93867 5.66839C5.77666 5.82936 5.5839 5.95607 5.37188 6.04096C5.15986 6.12585 4.93291 6.16718 4.70458 6.1625ZM17.2935 17.0458H14.2879V11.8278C14.2879 10.2889 13.6337 9.81389 12.7893 9.81389C11.8976 9.81389 11.0226 10.4861 11.0226 11.8667V17.0458H8.01569V7.49306H10.9074V8.81667H10.9462C11.2365 8.22917 12.2532 7.225 13.8046 7.225C15.4824 7.225 17.2949 8.22083 17.2949 11.1375L17.2935 17.0458Z" fill="#FCE3D2"/>
</g>
<defs>
<clipPath id="clip0_238_17676">
<rect width="20" height="20" fill="white" transform="translate(0.249023)"/>
</clipPath>
</defs>
</svg>
