<svg width="21" height="20" viewBox="0 0 21 20" fill="none" xmlns="http://www.w3.org/2000/svg">
<g clip-path="url(#clip0_238_17677)">
<path fill-rule="evenodd" clip-rule="evenodd" d="M1.94652 9.41086C7.11442 7.15929 10.5605 5.67491 12.2848 4.95774C17.2079 2.91006 18.2308 2.55435 18.8976 2.54261C19.0442 2.54002 19.3721 2.57637 19.5845 2.74871C19.7639 2.89423 19.8132 3.09082 19.8368 3.22879C19.8604 3.36676 19.8898 3.68107 19.8665 3.92666C19.5997 6.72978 18.4453 13.5322 17.858 16.6718C17.6095 18.0002 17.1202 18.4456 16.6465 18.4892C15.6171 18.584 14.8353 17.8089 13.8383 17.1553C12.278 16.1325 11.3966 15.4959 9.88208 14.4978C8.13183 13.3444 9.26645 12.7105 10.2639 11.6745C10.525 11.4034 15.0608 7.2777 15.1486 6.90343C15.1596 6.85662 15.1698 6.68215 15.0661 6.59001C14.9624 6.49788 14.8095 6.52939 14.6991 6.55445C14.5426 6.58996 12.0501 8.23742 7.22153 11.4968C6.51404 11.9826 5.87322 12.2193 5.29906 12.2069C4.6661 12.1933 3.44854 11.849 2.54341 11.5548C1.43323 11.1939 0.550878 11.0031 0.627711 10.3903C0.66773 10.071 1.10733 9.74457 1.94652 9.41086Z" fill="#FCE3D2"/>
</g>
<defs>
<clipPath id="clip0_238_17677">
<rect width="20" height="20" fill="white" transform="translate(0.249023)"/>
</clipPath>
</defs>
</svg>
