<svg width="21" height="20" viewBox="0 0 21 20" fill="none" xmlns="http://www.w3.org/2000/svg">
<g clip-path="url(#clip0_238_17681)">
<path d="M18.3844 5.98396C18.3922 6.15996 18.3922 6.32796 18.3922 6.50396C18.3999 11.84 14.4795 18 7.31011 18C5.19557 18 3.11961 17.368 1.33691 16.184C1.64561 16.224 1.9543 16.24 2.26299 16.24C4.01482 16.24 5.72034 15.632 7.10174 14.504C5.4348 14.472 3.96851 13.344 3.45917 11.696C4.04569 11.816 4.64764 11.792 5.21872 11.624C3.40515 11.256 2.10093 9.59997 2.09321 7.67197C2.09321 7.65597 2.09321 7.63997 2.09321 7.62397C2.63342 7.93597 3.24309 8.11197 3.86047 8.12797C2.15495 6.94396 1.62245 4.58396 2.65657 2.73595C4.63992 5.26396 7.55706 6.79196 10.6903 6.95996C10.3739 5.55996 10.806 4.08796 11.817 3.09595C13.3836 1.56795 15.8532 1.64795 17.3349 3.27195C18.2069 3.09595 19.0481 2.75995 19.8121 2.28795C19.5189 3.22395 18.9092 4.01596 18.0989 4.51996C18.8706 4.42396 19.6269 4.20796 20.3369 3.88795C19.8121 4.70396 19.1484 5.40796 18.3844 5.98396Z" fill="#FCE3D2"/>
</g>
<defs>
<clipPath id="clip0_238_17681">
<rect width="20" height="20" fill="white" transform="translate(0.836914)"/>
</clipPath>
</defs>
</svg>
