<svg width="21" height="20" viewBox="0 0 21 20" fill="none" xmlns="http://www.w3.org/2000/svg">
<g clip-path="url(#clip0_238_17684)">
<path d="M20.425 5.19109C20.1943 4.33443 19.5189 3.65898 18.6622 3.42833C17.0971 3 10.8369 3 10.8369 3C10.8369 3 4.5766 3 3.01153 3.41186C2.17134 3.6425 1.47942 4.33443 1.24877 5.19109C0.836914 6.75616 0.836914 10.0016 0.836914 10.0016C0.836914 10.0016 0.836914 13.2635 1.24877 14.8121C1.47942 15.6688 2.15487 16.3443 3.01153 16.5749C4.59308 17.0032 10.8369 17.0032 10.8369 17.0032C10.8369 17.0032 17.0971 17.0032 18.6622 16.5914C19.5189 16.3607 20.1943 15.6853 20.425 14.8286C20.8368 13.2635 20.8368 10.0181 20.8368 10.0181C20.8368 10.0181 20.8533 6.75616 20.425 5.19109Z" fill="#FCE3D2"/>
<path d="M8.84375 13.0001L14.0497 10.0018L8.84375 7.00342V13.0001Z" fill="#181818"/>
</g>
<defs>
<clipPath id="clip0_238_17684">
<rect width="20" height="20" fill="white" transform="translate(0.836914)"/>
</clipPath>
</defs>
</svg>
