<svg width="167" height="36" viewBox="0 0 167 36" fill="none" xmlns="http://www.w3.org/2000/svg">
<path d="M10.0682 7.01883H0V0.743347H27.644V7.0077H17.5684V35.2566H10.0682V7.01883Z" fill="#D7D0C6"/>
<path d="M30.9395 0.743347H38.4396V35.2566H30.9395V0.743347Z" fill="#D7D0C6"/>
<path d="M81.455 7.01883H71.4053V0.743347H99.0382V7.0077H88.97V35.2566H81.455V7.01883Z" fill="#D7D0C6"/>
<path d="M107.696 33.7165C104.941 32.2567 102.644 30.0612 101.061 27.3743C99.4174 24.5371 98.5819 21.3042 98.6449 18.026C98.584 14.7386 99.4192 11.4967 101.061 8.64802C102.64 5.9521 104.937 3.74845 107.696 2.28347C110.584 0.748482 113.811 -0.0363201 117.082 0.00113447C120.341 -0.0468142 123.559 0.734734 126.434 2.27233C129.181 3.74779 131.468 5.95433 133.039 8.64802C134.684 11.4957 135.521 14.7381 135.459 18.026C135.523 21.3047 134.686 24.538 133.039 27.3743C131.467 30.0524 129.188 32.2465 126.452 33.7165C123.573 35.2611 120.348 36.0466 117.082 35.9989C113.811 36.0363 110.584 35.2515 107.696 33.7165ZM122.5 27.7194C124.119 26.8197 125.455 25.4872 126.359 23.871C127.296 22.0739 127.788 20.078 127.792 18.0514C127.797 16.0248 127.314 14.0268 126.385 12.2255C125.489 10.6072 124.155 9.27363 122.537 8.3771C120.849 7.48504 118.969 7.01874 117.059 7.01874C115.15 7.01874 113.27 7.48504 111.582 8.3771C109.959 9.27646 108.618 10.6087 107.707 12.2255C106.769 14.0229 106.279 16.0206 106.279 18.0483C106.279 20.0759 106.769 22.0736 107.707 23.871C108.62 25.4945 109.972 26.8282 111.608 27.7194C113.286 28.6334 115.171 29.1011 117.082 29.0777C118.975 29.1022 120.842 28.6342 122.5 27.7194Z" fill="#D7D0C6"/>
<path d="M71.0232 12.3999C71.0232 16.1482 69.8629 19.0267 67.5422 21.0357C66.7662 21.7046 65.9021 22.264 64.9741 22.6983C62.8237 23.6448 60.4908 24.1048 58.142 24.0454H51.1354V35.2567H43.6353V26.7211C43.6353 24.9398 43.4868 23.3106 44.1919 21.6295C45.3203 18.951 47.4513 16.82 50.1297 15.6917C50.4637 15.5544 54.3789 14.5301 54.3789 14.8493V19.7813L60.1274 16.4599L67.1785 12.3777L60.1274 8.29546L54.3789 4.95546V9.89124C51.8942 9.89279 49.4813 9.05783 47.5289 7.52087C45.5766 5.9839 44.1985 3.83444 43.6167 1.41878V0.743355H58.1234C60.4725 0.683474 62.8041 1.16073 64.9407 2.13873C65.8671 2.58255 66.7286 3.15063 67.5014 3.82728C69.8518 5.89066 71.0257 8.74822 71.0232 12.3999Z" fill="#D7D0C6"/>
<path d="M167 12.4C167 16.1482 165.841 19.0268 163.522 21.0357C162.745 21.7047 161.88 22.264 160.951 22.6983C158.801 23.6443 156.47 24.1043 154.122 24.0454H147.116V35.2567H139.612V26.7211C139.612 24.9398 139.463 23.3106 140.169 21.6295C141.297 18.9511 143.428 16.8201 146.106 15.6917C146.444 15.5544 150.355 14.5301 150.355 14.8493V19.7813L156.104 16.4599L163.177 12.3777L156.104 8.29547L150.355 4.95547V9.89125C147.871 9.89281 145.458 9.05784 143.505 7.52088C141.553 5.98391 140.175 3.83445 139.593 1.41879V0.743368H154.104C156.452 0.683792 158.782 1.16105 160.917 2.13875C161.845 2.58076 162.706 3.149 163.478 3.8273C165.828 5.89067 167.002 8.74823 167 12.4Z" fill="#D7D0C6"/>
</svg>
